<?xml version="1.0" encoding="iso-8859-1"?>
<!-- Generator: Adobe Illustrator 19.0.0, SVG Export Plug-In . SVG Version: 6.00 Build 0)  -->
<svg version="1.1" id="Capa_1" xmlns="http://www.w3.org/2000/svg" xmlns:xlink="http://www.w3.org/1999/xlink" x="0px" y="0px"
	 viewBox="0 0 512 512" style="enable-background:new 0 0 512 512;" xml:space="preserve">
<path style="fill:#32D736;" d="M321.701,439.3c-17.999,31.8-56.7,54-58.5,54.901c-2.1,1.199-4.799,1.8-7.2,1.8
	c-2.401,0-5.099-0.601-7.2-1.8c-1.8-0.901-40.501-23.101-58.5-54.901l65.7-66L321.701,439.3z"/>
<path style="fill:#10BB67;" d="M321.701,439.3c-17.999,31.8-56.7,54-58.5,54.901c-2.1,1.199-4.799,1.8-7.2,1.8V373.299
	L321.701,439.3z"/>
<g>
	<path style="fill:#1DE8F1;" d="M271,31v30c0,8.401-6.599,15-15,15c-8.401,0-15-6.599-15-15V31c0-8.401,6.599-15,15-15
		C264.401,16,271,22.599,271,31z"/>
	<path style="fill:#1DE8F1;" d="M136.001,127.211L114.79,106c-5.859-5.859-5.859-15.352,0-21.211s15.352-5.859,21.211,0L157.212,106
		c5.859,5.859,5.859,15.352,0,21.211C151.353,133.07,141.861,133.07,136.001,127.211z"/>
</g>
<path style="fill:#1BD9DE;" d="M354.789,127.211c-5.859-5.859-5.859-15.352,0-21.211L376,84.789c5.859-5.859,15.352-5.859,21.211,0
	s5.859,15.352,0,21.211L376,127.211C370.141,133.07,360.649,133.07,354.789,127.211z"/>
<path style="fill:#FE52A2;" d="M105.093,319.721C48.125,333.212,5.567,379.047,3.824,380.995c-5.098,5.698-5.098,14.312,0,20.01
	C6.197,403.656,63.856,466,136.001,466s128.804-62.344,131.177-64.995L105.093,319.721z"/>
<path style="fill:#FE318F;" d="M508.177,380.995c-1.743-1.948-44.301-47.783-101.269-61.274l-162.085,81.284
	C247.197,403.656,303.856,466,376,466s129.804-62.344,132.177-64.995C513.274,395.307,513.274,386.693,508.177,380.995z"/>
<path style="fill:#1BD9DE;" d="M256,76V16c8.401,0,15,6.599,15,15v30C271,69.401,264.401,76,256,76z"/>
<path style="fill:#FE73B2;" d="M205.814,229.604C176.898,207.616,142.387,196,106.001,196h-30c-8.291,0-15,6.709-15,15v30
	c0,90.981,74.019,165,165,165h30L205.814,229.604z"/>
<path style="fill:#FE52A2;" d="M436,196h-30c-36.387,0-70.898,11.616-99.814,33.604L256,406h30c90.981,0,165-74.019,165-165v-30
	C451,202.709,444.291,196,436,196z"/>
<path style="fill:#FE91C2;" d="M266.499,110.501c-2.699-2.701-6.599-4.2-10.499-4.2c-3.9,0-7.8,1.5-10.499,4.2
	c-2.701,2.699-64.501,65.7-64.501,145.499s61.8,142.8,64.501,145.499C248.201,404.5,252.101,406,256,406c3.9,0,7.8-1.5,10.499-4.501
	C269.201,398.8,331,335.799,331,256S269.201,113.2,266.499,110.501z"/>
<path style="fill:#FE73B2;" d="M331,256c0,79.799-61.8,142.8-64.501,145.499C263.8,404.5,259.9,406,256,406V106.3
	c3.9,0,7.8,1.5,10.499,4.2C269.201,113.2,331,176.201,331,256z"/>
<g>
</g>
<g>
</g>
<g>
</g>
<g>
</g>
<g>
</g>
<g>
</g>
<g>
</g>
<g>
</g>
<g>
</g>
<g>
</g>
<g>
</g>
<g>
</g>
<g>
</g>
<g>
</g>
<g>
</g>
</svg>
